<svg width="235" height="203" viewBox="0 0 235 203" fill="none" xmlns="http://www.w3.org/2000/svg">
<path d="M235 137C235 130.078 232.947 123.311 229.101 117.555C225.256 111.799 219.789 107.313 213.394 104.664C206.999 102.015 199.961 101.322 193.172 102.673C186.383 104.023 180.146 107.356 175.251 112.251C170.356 117.146 167.023 123.383 165.673 130.172C164.322 136.961 165.015 143.999 167.664 150.394C170.313 156.789 174.799 162.256 180.555 166.101C186.311 169.947 193.078 172 200 172L200 137H235Z" fill="black" fill-opacity="0.04"/>
<path d="M118 90C118 122.585 91.5848 149 59 149C26.4152 149 0 122.585 0 90C0 57.4152 26.4152 31 59 31C91.5848 31 118 57.4152 118 90ZM24.3984 90C24.3984 109.11 39.8901 124.602 59 124.602C78.1099 124.602 93.6016 109.11 93.6016 90C93.6016 70.8901 78.1099 55.3984 59 55.3984C39.8901 55.3984 24.3984 70.8901 24.3984 90Z" fill="black" fill-opacity="0.04"/>
</svg>
