<svg width="235" height="203" viewBox="0 0 235 203" fill="none" xmlns="http://www.w3.org/2000/svg">
<circle cx="163" cy="79" r="40" fill="#FB8485"/>
<path d="M82 42C82 34.6821 79.83 27.5285 75.7644 21.4439C71.6988 15.3593 65.9202 10.6169 59.1593 7.81646C52.3984 5.01601 44.959 4.28329 37.7817 5.71094C30.6044 7.1386 24.0116 10.6625 18.837 15.837C13.6625 21.0116 10.1386 27.6044 8.71094 34.7817C7.28329 41.959 8.01601 49.3984 10.8165 56.1593C13.6169 62.9202 18.3593 68.6988 24.4439 72.7644C30.5285 76.83 37.6821 79 45 79L45 42H82Z" fill="#31A1C9"/>
<line x1="35" y1="125.343" x2="148.343" y2="12" stroke="#F7C9D9" stroke-width="8" stroke-linecap="round"/>
<line x1="142" y1="192.343" x2="222.343" y2="112" stroke="#2DD2C5" stroke-width="8" stroke-linecap="round"/>
</svg>
