<svg width="179" height="166" viewBox="0 0 179 166" fill="none" xmlns="http://www.w3.org/2000/svg">
<path d="M157 40C157 33.671 155.123 27.4841 151.607 22.2218C148.091 16.9594 143.093 12.8579 137.246 10.4359C131.399 8.01385 124.965 7.38014 118.757 8.61487C112.55 9.8496 106.848 12.8973 102.373 17.3726C97.8973 21.8479 94.8496 27.5497 93.6149 33.7571C92.3801 39.9645 93.0139 46.3986 95.4359 52.2459C97.8579 58.0931 101.959 63.0908 107.222 66.607C112.484 70.1232 118.671 72 125 72V40H157Z" fill="#F7C9D9"/>
<circle cx="31.5" cy="39.5" r="31.5" fill="black" fill-opacity="0.04"/>
<path d="M179 19.5C179 45.7335 157.734 67 131.5 67C105.266 67 84 45.7335 84 19.5C84 -6.73353 105.266 -28 131.5 -28C157.734 -28 179 -6.73353 179 19.5ZM99.8652 19.5C99.8652 36.9714 114.029 51.1348 131.5 51.1348C148.971 51.1348 163.135 36.9714 163.135 19.5C163.135 2.02858 148.971 -12.1348 131.5 -12.1348C114.029 -12.1348 99.8652 2.02858 99.8652 19.5Z" fill="black" fill-opacity="0.04"/>
<path d="M147 166C155.307 166 163.427 163.537 170.334 158.922C177.241 154.307 182.624 147.747 185.803 140.073C188.982 132.398 189.814 123.953 188.193 115.806C186.572 107.659 182.572 100.175 176.698 94.3015C170.825 88.4277 163.341 84.4276 155.194 82.807C147.047 81.1864 138.602 82.0182 130.927 85.1971C123.253 88.3759 116.693 93.7592 112.078 100.666C107.463 107.573 105 115.693 105 124L147 124V166Z" fill="black" fill-opacity="0.04"/>
<line x1="147" y1="118.343" x2="183.343" y2="82" stroke="#FB8485" stroke-width="8" stroke-linecap="round"/>
<line x1="38" y1="62.3431" x2="113.343" y2="-13" stroke="#2DD2C5" stroke-width="8" stroke-linecap="round"/>
</svg>
