<svg width="181" height="154" viewBox="0 0 181 154" fill="none" xmlns="http://www.w3.org/2000/svg">
<circle cx="40" cy="103" r="40" fill="#2DD2C5"/>
<path d="M70 51.5C70 79.9427 46.9427 103 18.5 103C-9.94267 103 -33 79.9427 -33 51.5C-33 23.0573 -9.94267 0 18.5 0C46.9427 0 70 23.0573 70 51.5ZM-22.9906 51.5C-22.9906 74.4146 -4.41463 92.9906 18.5 92.9906C41.4146 92.9906 59.9906 74.4146 59.9906 51.5C59.9906 28.5854 41.4146 10.0094 18.5 10.0094C-4.41463 10.0094 -22.9906 28.5854 -22.9906 51.5Z" fill="black" fill-opacity="0.04"/>
<path d="M181 128C181 160.033 155.033 186 123 186C90.9675 186 65 160.033 65 128C65 95.9675 90.9675 70 123 70C155.033 70 181 95.9675 181 128ZM89.8811 128C89.8811 146.291 104.709 161.119 123 161.119C141.291 161.119 156.119 146.291 156.119 128C156.119 109.709 141.291 94.8811 123 94.8811C104.709 94.8811 89.8811 109.709 89.8811 128Z" fill="black" fill-opacity="0.04"/>
<line x1="77" y1="157.343" x2="160.343" y2="74" stroke="#31A1C9" stroke-width="8" stroke-linecap="round"/>
<line x1="-27" y1="77.3431" x2="31.3431" y2="19" stroke="#FB8485" stroke-width="8" stroke-linecap="round"/>
</svg>
