<svg width="206" height="173" viewBox="0 0 206 173" fill="none" xmlns="http://www.w3.org/2000/svg">
<circle cx="162" cy="45" r="40" fill="#FB8485"/>
<path d="M74 18C74 10.6821 71.83 3.52852 67.7644 -2.5561C63.6988 -8.64072 57.9202 -13.3831 51.1593 -16.1835C44.3984 -18.984 36.959 -19.7167 29.7817 -18.2891C22.6044 -16.8614 16.0116 -13.3375 10.837 -8.16295C5.66251 -2.98841 2.1386 3.60436 0.710945 10.7817C-0.716709 17.959 0.0160149 25.3984 2.81646 32.1593C5.6169 38.9202 10.3593 44.6988 16.4439 48.7644C22.5285 52.83 29.6821 55 37 55V18H74Z" fill="#31A1C9"/>
<path d="M194 132C194 154.644 175.644 173 153 173C130.356 173 112 154.644 112 132C112 109.356 130.356 91 153 91C175.644 91 194 109.356 194 132ZM118.126 132C118.126 151.26 133.74 166.874 153 166.874C172.26 166.874 187.874 151.26 187.874 132C187.874 112.74 172.26 97.1261 153 97.1261C133.74 97.1261 118.126 112.74 118.126 132Z" fill="black" fill-opacity="0.04"/>
<circle cx="121.5" cy="12.5" r="42.5" fill="black" fill-opacity="0.04"/>
<line x1="49" y1="79.3431" x2="140.343" y2="-12" stroke="#F7C9D9" stroke-width="8" stroke-linecap="round"/>
<line x1="153" y1="149.343" x2="214.343" y2="88" stroke="#2DD2C5" stroke-width="8" stroke-linecap="round"/>
</svg>
