<svg width="200" height="152" viewBox="0 0 200 152" fill="none" xmlns="http://www.w3.org/2000/svg">
<circle cx="72" cy="94" r="40" fill="#2DD2C5"/>
<path d="M200 106C200 99.0777 197.947 92.3108 194.101 86.555C190.256 80.7993 184.789 76.3133 178.394 73.6642C171.999 71.0151 164.961 70.322 158.172 71.6725C151.383 73.023 145.146 76.3564 140.251 81.2513C135.356 86.1461 132.023 92.3825 130.673 99.1718C129.322 105.961 130.015 112.999 132.664 119.394C135.313 125.789 139.799 131.256 145.555 135.101C151.311 138.947 158.078 141 165 141V106H200Z" fill="black" fill-opacity="0.04"/>
<path d="M83 59C83 91.5848 56.5848 118 24 118C-8.5848 118 -35 91.5848 -35 59C-35 26.4152 -8.5848 0 24 0C56.5848 0 83 26.4152 83 59ZM-10.6016 59C-10.6016 78.1099 4.89006 93.6016 24 93.6016C43.1099 93.6016 58.6016 78.1099 58.6016 59C58.6016 39.8901 43.1099 24.3984 24 24.3984C4.89006 24.3984 -10.6016 39.8901 -10.6016 59Z" fill="black" fill-opacity="0.04"/>
<line x1="83" y1="159.343" x2="171.343" y2="71" stroke="#31A1C9" stroke-width="8" stroke-linecap="round"/>
</svg>
