<svg width="422" height="239" viewBox="0 0 422 239" fill="none" xmlns="http://www.w3.org/2000/svg">
<circle cx="12.5" cy="82.5" r="82.5" fill="black" fill-opacity="0.04"/>
<path d="M422 265.5C422 313.825 382.825 353 334.5 353C286.175 353 247 313.825 247 265.5C247 217.175 286.175 178 334.5 178C382.825 178 422 217.175 422 265.5ZM273.25 265.5C273.25 299.327 300.673 326.75 334.5 326.75C368.327 326.75 395.75 299.327 395.75 265.5C395.75 231.673 368.327 204.25 334.5 204.25C300.673 204.25 273.25 231.673 273.25 265.5Z" fill="black" fill-opacity="0.04"/>
<path d="M190 140C183.078 140 176.311 142.053 170.555 145.899C164.799 149.744 160.313 155.211 157.664 161.606C155.015 168.001 154.322 175.039 155.673 181.828C157.023 188.617 160.356 194.854 165.251 199.749C170.146 204.644 176.383 207.977 183.172 209.327C189.961 210.678 196.999 209.985 203.394 207.336C209.789 204.687 215.256 200.201 219.101 194.445C222.947 188.689 225 181.922 225 175H190V140Z" fill="black" fill-opacity="0.04"/>
<circle cx="147" cy="216" r="100" fill="white" fill-opacity="0.12"/>
<path d="M169 82.5C169 114.256 143.256 140 111.5 140C79.7436 140 54 114.256 54 82.5C54 50.7436 79.7436 25 111.5 25C143.256 25 169 50.7436 169 82.5ZM62.5914 82.5C62.5914 109.511 84.4885 131.409 111.5 131.409C138.511 131.409 160.409 109.511 160.409 82.5C160.409 55.4885 138.511 33.5914 111.5 33.5914C84.4885 33.5914 62.5914 55.4885 62.5914 82.5Z" fill="white" fill-opacity="0.12"/>
<line x1="95" y1="268.906" x2="287.906" y2="76" stroke="#2DD2C5" stroke-width="8" stroke-linecap="round"/>
<line x1="-19" y1="167.777" x2="104.777" y2="44" stroke="#F7C9D9" stroke-width="8" stroke-linecap="round"/>
</svg>
