<svg width="503" height="235" viewBox="0 0 503 235" fill="none" xmlns="http://www.w3.org/2000/svg">
<path d="M59.5 80C71.268 80 82.7717 76.5104 92.5564 69.9724C102.341 63.4345 109.967 54.1419 114.471 43.2697C118.974 32.3975 120.153 20.434 117.857 8.89213C115.561 -2.64974 109.894 -13.2516 101.573 -21.5728C93.2516 -29.8941 82.6497 -35.5609 71.1079 -37.8567C59.566 -40.1525 47.6025 -38.9742 36.7303 -34.4708C25.8581 -29.9674 16.5655 -22.3412 10.0276 -12.5564C3.48962 -2.77171 1.77692e-06 8.732 0 20.5L59.5 20.5L59.5 80Z" fill="white" fill-opacity="0.12"/>
<circle cx="442" cy="188" r="47" fill="black" fill-opacity="0.04"/>
<path d="M350 112.5C350 159.168 312.168 197 265.5 197C218.832 197 181 159.168 181 112.5C181 65.8319 218.832 28 265.5 28C312.168 28 350 65.8319 350 112.5ZM196.269 112.5C196.269 150.735 227.265 181.731 265.5 181.731C303.735 181.731 334.731 150.735 334.731 112.5C334.731 74.2647 303.735 43.2688 265.5 43.2688C227.265 43.2688 196.269 74.2647 196.269 112.5Z" fill="white" fill-opacity="0.12"/>
<path d="M282 28C282 60.5848 255.585 87 223 87C190.415 87 164 60.5848 164 28C164 -4.5848 190.415 -31 223 -31C255.585 -31 282 -4.5848 282 28ZM190.58 28C190.58 45.9052 205.095 60.4203 223 60.4203C240.905 60.4203 255.42 45.9052 255.42 28C255.42 10.0948 240.905 -4.42026 223 -4.42026C205.095 -4.42026 190.58 10.0948 190.58 28Z" fill="black" fill-opacity="0.04"/>
<circle cx="427" cy="61" r="100" fill="white" fill-opacity="0.12"/>
<line x1="327" y1="217.06" x2="531.06" y2="13" stroke="#31A1C9" stroke-width="8" stroke-linecap="round"/>
<line x1="252" y1="108.777" x2="375.777" y2="-14.9999" stroke="#FB8485" stroke-width="8" stroke-linecap="round"/>
</svg>
