<svg width="655" height="540" viewBox="0 0 655 540" fill="none" xmlns="http://www.w3.org/2000/svg">
<path d="M336 483C336 463.222 330.135 443.888 319.147 427.443C308.159 410.998 292.541 398.181 274.268 390.612C255.996 383.043 235.889 381.063 216.491 384.921C197.093 388.78 179.275 398.304 165.289 412.289C151.304 426.275 141.78 444.093 137.921 463.491C134.063 482.889 136.043 502.996 143.612 521.268C151.181 539.541 163.998 555.159 180.443 566.147C196.888 577.135 216.222 583 236 583V483H336Z" fill="#2DD2C5"/>
<circle cx="504" cy="401" r="100" fill="#FB8485"/>
<circle cx="604" cy="156" r="100" fill="#31A1C9"/>
<circle cx="100" cy="566" r="100" fill="black" fill-opacity="0.04"/>
<circle cx="581" cy="348" r="47" fill="black" fill-opacity="0.04"/>
<path d="M566 184C566 219.346 537.346 248 502 248C466.654 248 438 219.346 438 184C438 148.654 466.654 120 502 120C537.346 120 566 148.654 566 184ZM454.652 184C454.652 210.15 475.85 231.348 502 231.348C528.15 231.348 549.348 210.15 549.348 184C549.348 157.85 528.15 136.652 502 136.652C475.85 136.652 454.652 157.85 454.652 184Z" fill="black" fill-opacity="0.04"/>
<path d="M314 406C314 448.526 279.526 483 237 483C194.474 483 160 448.526 160 406C160 363.474 194.474 329 237 329C279.526 329 314 363.474 314 406ZM190.095 406C190.095 431.905 211.095 452.905 237 452.905C262.905 452.905 283.905 431.905 283.905 406C283.905 380.095 262.905 359.095 237 359.095C211.095 359.095 190.095 380.095 190.095 406Z" fill="white" fill-opacity="0.12"/>
<circle cx="555" cy="446" r="100" fill="white" fill-opacity="0.12"/>
<path d="M411 292C399.133 292 387.533 295.519 377.666 302.112C367.799 308.705 360.108 318.075 355.567 329.039C351.026 340.003 349.838 352.067 352.153 363.705C354.468 375.344 360.182 386.035 368.574 394.426C376.965 402.818 387.656 408.532 399.295 410.847C410.933 413.162 422.997 411.974 433.961 407.433C444.925 402.892 454.295 395.201 460.888 385.334C467.481 375.467 471 363.867 471 352H411V292Z" fill="black" fill-opacity="0.04"/>
<path d="M581 120C592.867 120 604.467 116.481 614.334 109.888C624.201 103.295 631.892 93.9246 636.433 82.961C640.974 71.9974 642.162 59.9334 639.847 48.2946C637.532 36.6557 631.818 25.9647 623.426 17.5736C615.035 9.18245 604.344 3.468 592.705 1.15288C581.067 -1.16223 569.003 0.0259687 558.039 4.56722C547.075 9.10848 537.705 16.7988 531.112 26.6658C524.519 36.5327 521 48.1331 521 60L581 60L581 120Z" fill="white" fill-opacity="0.12"/>
<path d="M438 526.5C438 562.675 408.675 592 372.5 592C336.325 592 307 562.675 307 526.5C307 490.325 336.325 461 372.5 461C408.675 461 438 490.325 438 526.5ZM332.6 526.5C332.6 548.536 350.464 566.4 372.5 566.4C394.536 566.4 412.4 548.536 412.4 526.5C412.4 504.464 394.536 486.6 372.5 486.6C350.464 486.6 332.6 504.464 332.6 526.5Z" fill="white" fill-opacity="0.12"/>
<line x1="288" y1="552.343" x2="421.343" y2="419" stroke="#31A1C9" stroke-width="8" stroke-linecap="round"/>
<line x1="411.434" y1="286.343" x2="549.777" y2="148" stroke="#F7C9D9" stroke-width="8" stroke-linecap="round"/>
<line x1="26" y1="639.06" x2="230.06" y2="435" stroke="#FB8485" stroke-width="8" stroke-linecap="round"/>
<line x1="480" y1="503.343" x2="663.343" y2="320" stroke="#2DD2C5" stroke-width="8" stroke-linecap="round"/>
</svg>
