<svg width="602" height="585" viewBox="0 0 602 585" fill="none" xmlns="http://www.w3.org/2000/svg">
<circle cx="125" cy="376" r="100" fill="#2DD2C5"/>
<circle cx="353" cy="133" r="100" fill="#F7C9D9"/>
<path d="M195 113C195 93.2219 189.135 73.8879 178.147 57.443C167.159 40.9981 151.541 28.1808 133.268 20.612C114.996 13.0433 94.8891 11.0629 75.491 14.9215C56.0929 18.78 38.2746 28.3041 24.2893 42.2893C10.3041 56.2746 0.779994 74.0929 -3.07853 93.491C-6.93705 112.889 -4.95672 132.996 2.61205 151.268C10.1808 169.541 22.9981 185.159 39.443 196.147C55.8879 207.135 75.2219 213 95 213V113H195Z" fill="#31A1C9"/>
<path d="M240 126.5C240 158.256 214.256 184 182.5 184C150.744 184 125 158.256 125 126.5C125 94.7436 150.744 69 182.5 69C214.256 69 240 94.7436 240 126.5ZM139.627 126.5C139.627 150.178 158.822 169.373 182.5 169.373C206.178 169.373 225.373 150.178 225.373 126.5C225.373 102.822 206.178 83.6275 182.5 83.6275C158.822 83.6275 139.627 102.822 139.627 126.5Z" fill="white" fill-opacity="0.12"/>
<path d="M112 463C112 505.526 77.5259 540 35 540C-7.52592 540 -42 505.526 -42 463C-42 420.474 -7.52592 386 35 386C77.5259 386 112 420.474 112 463ZM-11.9048 463C-11.9048 488.905 9.09521 509.905 35 509.905C60.9048 509.905 81.9048 488.905 81.9048 463C81.9048 437.095 60.9048 416.095 35 416.095C9.09521 416.095 -11.9048 437.095 -11.9048 463Z" fill="white" fill-opacity="0.12"/>
<path d="M381.5 233C391.092 233 400.469 230.156 408.445 224.826C416.421 219.497 422.637 211.922 426.308 203.06C429.979 194.198 430.939 184.446 429.068 175.038C427.197 165.63 422.578 156.988 415.795 150.205C409.012 143.422 400.37 138.803 390.962 136.932C381.554 135.061 371.802 136.021 362.94 139.692C354.078 143.363 346.503 149.579 341.174 157.555C335.844 165.531 333 174.908 333 184.5L381.5 184.5L381.5 233Z" fill="black" fill-opacity="0.04"/>
<circle cx="135" cy="313" r="100" fill="white" fill-opacity="0.12"/>
<path d="M306 269C306 301.585 279.585 328 247 328C214.415 328 188 301.585 188 269C188 236.415 214.415 210 247 210C279.585 210 306 236.415 306 269ZM212.398 269C212.398 288.11 227.89 303.602 247 303.602C266.11 303.602 281.602 288.11 281.602 269C281.602 249.89 266.11 234.398 247 234.398C227.89 234.398 212.398 249.89 212.398 269Z" fill="black" fill-opacity="0.04"/>
<path d="M0 81C-9.50982e-07 91.878 3.22569 102.512 9.26917 111.556C15.3126 120.601 23.9025 127.651 33.9524 131.813C44.0023 135.976 55.061 137.065 65.73 134.943C76.3989 132.821 86.199 127.583 93.8909 119.891C101.583 112.199 106.821 102.399 108.943 91.73C111.065 81.061 109.976 70.0023 105.813 59.9524C101.651 49.9025 94.6011 41.3127 85.5564 35.2692C76.5117 29.2257 65.878 26 55 26L55 81L0 81Z" fill="white" fill-opacity="0.12"/>
<path d="M306 58.5C306 106.825 266.825 146 218.5 146C170.175 146 131 106.825 131 58.5C131 10.1751 170.175 -29 218.5 -29C266.825 -29 306 10.1751 306 58.5ZM157.25 58.5C157.25 92.3274 184.673 119.75 218.5 119.75C252.327 119.75 279.75 92.3274 279.75 58.5C279.75 24.6726 252.327 -2.75 218.5 -2.75C184.673 -2.75 157.25 24.6726 157.25 58.5Z" fill="black" fill-opacity="0.04"/>
<circle cx="453" r="100" fill="black" fill-opacity="0.04"/>
<line x1="-52" y1="578.777" x2="71.7771" y2="455" stroke="#FB8485" stroke-width="8" stroke-linecap="round"/>
<line x1="403" y1="134.906" x2="595.906" y2="-58.0003" stroke="#31A1C9" stroke-width="8" stroke-linecap="round"/>
<line x1="46" y1="190.906" x2="238.906" y2="-2.00027" stroke="#2DD2C5" stroke-width="8" stroke-linecap="round"/>
</svg>
