<svg width="233" height="56" viewBox="0 0 233 56" fill="none" xmlns="http://www.w3.org/2000/svg">
<path d="M219 37C219 43.6274 213.627 49 207 49C200.373 49 195 43.6274 195 37C195 30.3726 200.373 25 207 25C213.627 25 219 30.3726 219 37ZM199.188 37C199.188 41.3143 202.686 44.8117 207 44.8117C211.314 44.8117 214.812 41.3143 214.812 37C214.812 32.6857 211.314 29.1883 207 29.1883C202.686 29.1883 199.188 32.6857 199.188 37Z" fill="white" fill-opacity="0.12"/>
<path d="M140 35C140 31.4399 138.944 27.9598 136.966 24.9997C134.989 22.0397 132.177 19.7325 128.888 18.3702C125.599 17.0078 121.98 16.6513 118.488 17.3459C114.997 18.0404 111.789 19.7547 109.272 22.2721C106.755 24.7894 105.04 27.9967 104.346 31.4884C103.651 34.98 104.008 38.5992 105.37 41.8883C106.733 45.1774 109.04 47.9886 112 49.9665C114.96 51.9443 118.44 53 122 53V35H140Z" fill="white" fill-opacity="0.12"/>
<path d="M169 22C169 31.3888 161.389 39 152 39C142.611 39 135 31.3888 135 22C135 12.6112 142.611 5 152 5C161.389 5 169 12.6112 169 22ZM141.057 22C141.057 28.0437 145.956 32.9431 152 32.9431C158.044 32.9431 162.943 28.0437 162.943 22C162.943 15.9563 158.044 11.0569 152 11.0569C145.956 11.0569 141.057 15.9563 141.057 22Z" fill="black" fill-opacity="0.04"/>
<circle cx="28" cy="25" r="20" fill="black" fill-opacity="0.04"/>
<line x1="42" y1="50" x2="86" y2="50" stroke="#FB8485" stroke-width="4" stroke-linecap="round"/>
<line x1="18" y1="44" x2="62" y2="44" stroke="#31A1C9" stroke-width="4" stroke-linecap="round"/>
<line x1="163" y1="11" x2="215" y2="11" stroke="#31A1C9" stroke-width="4" stroke-linecap="round"/>
<line x1="139" y1="5" x2="191" y2="5" stroke="#2DD2C5" stroke-width="4" stroke-linecap="round"/>
<path d="M32.896 23.64C32.4907 22.8933 31.904 22.328 31.136 21.944C30.3893 21.5387 29.504 21.336 28.48 21.336C26.7093 21.336 25.2907 21.9227 24.224 23.096C23.1573 24.248 22.624 25.7947 22.624 27.736C22.624 29.8053 23.1787 31.4267 24.288 32.6C25.4187 33.752 26.9653 34.328 28.928 34.328C30.272 34.328 31.4027 33.9867 32.32 33.304C33.2587 32.6213 33.9413 31.64 34.368 30.36H27.424V26.328H39.328V31.416C38.9227 32.7813 38.2293 34.0507 37.248 35.224C36.288 36.3973 35.0613 37.3467 33.568 38.072C32.0747 38.7973 30.3893 39.16 28.512 39.16C26.2933 39.16 24.3093 38.68 22.56 37.72C20.832 36.7387 19.4773 35.384 18.496 33.656C17.536 31.928 17.056 29.9547 17.056 27.736C17.056 25.5173 17.536 23.544 18.496 21.816C19.4773 20.0667 20.832 18.712 22.56 17.752C24.288 16.7707 26.2613 16.28 28.48 16.28C31.168 16.28 33.4293 16.9307 35.264 18.232C37.12 19.5333 38.3467 21.336 38.944 23.64H32.896ZM53.815 39L49.143 30.52H47.831V39H42.359V16.536H51.543C53.3137 16.536 54.8177 16.8453 56.055 17.464C57.3137 18.0827 58.2523 18.936 58.871 20.024C59.4897 21.0907 59.799 22.2853 59.799 23.608C59.799 25.1013 59.3723 26.4347 58.519 27.608C57.687 28.7813 56.4497 29.6133 54.807 30.104L59.991 39H53.815ZM47.831 26.648H51.223C52.2257 26.648 52.9723 26.4027 53.463 25.912C53.975 25.4213 54.231 24.728 54.231 23.832C54.231 22.9787 53.975 22.3067 53.463 21.816C52.9723 21.3253 52.2257 21.08 51.223 21.08H47.831V26.648ZM77.218 35.032H68.834L67.49 39H61.762L69.89 16.536H76.226L84.354 39H78.562L77.218 35.032ZM75.81 30.808L73.026 22.584L70.274 30.808H75.81ZM95.2438 16.536C97.6118 16.536 99.6811 17.0053 101.452 17.944C103.222 18.8827 104.588 20.2053 105.548 21.912C106.529 23.5973 107.02 25.5493 107.02 27.768C107.02 29.9653 106.529 31.9173 105.548 33.624C104.588 35.3307 103.212 36.6533 101.42 37.592C99.6491 38.5307 97.5904 39 95.2438 39H86.8278V16.536H95.2438ZM94.8918 34.264C96.9611 34.264 98.5718 33.6987 99.7238 32.568C100.876 31.4373 101.452 29.8373 101.452 27.768C101.452 25.6987 100.876 24.088 99.7238 22.936C98.5718 21.784 96.9611 21.208 94.8918 21.208H92.2998V34.264H94.8918ZM124.987 39.224C123.344 39.224 121.872 38.9573 120.571 38.424C119.27 37.8907 118.224 37.1013 117.435 36.056C116.667 35.0107 116.262 33.752 116.219 32.28H122.043C122.128 33.112 122.416 33.752 122.907 34.2C123.398 34.6267 124.038 34.84 124.827 34.84C125.638 34.84 126.278 34.6587 126.747 34.296C127.216 33.912 127.451 33.3893 127.451 32.728C127.451 32.1733 127.259 31.7147 126.875 31.352C126.512 30.9893 126.054 30.6907 125.499 30.456C124.966 30.2213 124.198 29.9547 123.195 29.656C121.744 29.208 120.56 28.76 119.643 28.312C118.726 27.864 117.936 27.2027 117.275 26.328C116.614 25.4533 116.283 24.312 116.283 22.904C116.283 20.8133 117.04 19.1813 118.555 18.008C120.07 16.8133 122.043 16.216 124.475 16.216C126.95 16.216 128.944 16.8133 130.459 18.008C131.974 19.1813 132.784 20.824 132.891 22.936H126.971C126.928 22.2107 126.662 21.6453 126.171 21.24C125.68 20.8133 125.051 20.6 124.283 20.6C123.622 20.6 123.088 20.7813 122.683 21.144C122.278 21.4853 122.075 21.9867 122.075 22.648C122.075 23.3733 122.416 23.9387 123.099 24.344C123.782 24.7493 124.848 25.1867 126.299 25.656C127.75 26.1467 128.923 26.616 129.819 27.064C130.736 27.512 131.526 28.1627 132.187 29.016C132.848 29.8693 133.179 30.968 133.179 32.312C133.179 33.592 132.848 34.7547 132.187 35.8C131.547 36.8453 130.608 37.6773 129.371 38.296C128.134 38.9147 126.672 39.224 124.987 39.224ZM156.003 16.536V39H150.531V29.752H142.019V39H136.547V16.536H142.019V25.336H150.531V16.536H156.003ZM170.577 39.224C168.465 39.224 166.523 38.7333 164.753 37.752C163.003 36.7707 161.606 35.4053 160.561 33.656C159.537 31.8853 159.025 29.9013 159.025 27.704C159.025 25.5067 159.537 23.5333 160.561 21.784C161.606 20.0347 163.003 18.6693 164.753 17.688C166.523 16.7067 168.465 16.216 170.577 16.216C172.689 16.216 174.619 16.7067 176.369 17.688C178.139 18.6693 179.526 20.0347 180.529 21.784C181.553 23.5333 182.065 25.5067 182.065 27.704C182.065 29.9013 181.553 31.8853 180.529 33.656C179.505 35.4053 178.118 36.7707 176.369 37.752C174.619 38.7333 172.689 39.224 170.577 39.224ZM170.577 34.232C172.369 34.232 173.798 33.6347 174.865 32.44C175.953 31.2453 176.497 29.6667 176.497 27.704C176.497 25.72 175.953 24.1413 174.865 22.968C173.798 21.7733 172.369 21.176 170.577 21.176C168.763 21.176 167.313 21.7627 166.225 22.936C165.158 24.1093 164.625 25.6987 164.625 27.704C164.625 29.688 165.158 31.2773 166.225 32.472C167.313 33.6453 168.763 34.232 170.577 34.232ZM216.021 16.536L210.165 39H203.541L199.957 24.216L196.245 39H189.621L183.925 16.536H189.781L193.013 32.888L197.013 16.536H203.029L206.869 32.888L210.133 16.536H216.021Z" fill="#0A0800"/>
</svg>
