<svg width="158" height="167" viewBox="0 0 158 167" fill="none" xmlns="http://www.w3.org/2000/svg">
<circle cx="35.5" cy="124.5" r="38.5" fill="#31A1C9"/>
<path d="M30 0C23.0777 -8.25481e-08 16.3108 2.05271 10.555 5.89856C4.79932 9.74441 0.313284 15.2107 -2.33578 21.6061C-4.98485 28.0015 -5.67797 35.0388 -4.32748 41.8282C-2.977 48.6175 0.356425 54.8539 5.25126 59.7487C10.1461 64.6436 16.3825 67.977 23.1718 69.3275C29.9612 70.678 36.9985 69.9848 43.3939 67.3358C49.7893 64.6867 55.2556 60.2007 59.1014 54.445C62.9473 48.6892 65 41.9223 65 35H30V0Z" fill="black" fill-opacity="0.04"/>
<circle cx="100" cy="138" r="58" fill="black" fill-opacity="0.04"/>
<line x1="66" y1="178.343" x2="149.343" y2="95" stroke="#2DD2C5" stroke-width="8" stroke-linecap="round"/>
<line x1="-22" y1="96.3431" x2="36.3431" y2="38" stroke="#FB8485" stroke-width="8" stroke-linecap="round"/>
</svg>
