<svg width="193" height="154" viewBox="0 0 193 154" fill="none" xmlns="http://www.w3.org/2000/svg">
<circle cx="129" cy="35" r="40" fill="#F7C9D9"/>
<path d="M134 117C134 124.318 136.17 131.471 140.236 137.556C144.301 143.641 150.08 148.383 156.841 151.184C163.602 153.984 171.041 154.717 178.218 153.289C185.396 151.861 191.988 148.337 197.163 143.163C202.337 137.988 205.861 131.396 207.289 124.218C208.717 117.041 207.984 109.602 205.184 102.841C202.383 96.0798 197.641 90.3012 191.556 86.2356C185.471 82.17 178.318 80 171 80L171 117L134 117Z" fill="#2DD2C5"/>
<path d="M199 62C199 84.6437 180.644 103 158 103C135.356 103 117 84.6437 117 62C117 39.3563 135.356 21 158 21C180.644 21 199 39.3563 199 62ZM133.088 62C133.088 75.7584 144.242 86.9118 158 86.9118C171.758 86.9118 182.912 75.7584 182.912 62C182.912 48.2416 171.758 37.0882 158 37.0882C144.242 37.0882 133.088 48.2416 133.088 62Z" fill="black" fill-opacity="0.04"/>
<circle cx="42.5" cy="-2.5" r="42.5" fill="black" fill-opacity="0.04"/>
<line x1="111" y1="79.3431" x2="202.343" y2="-12" stroke="#31A1C9" stroke-width="8" stroke-linecap="round"/>
<line x1="18" y1="49.3431" x2="79.3431" y2="-12" stroke="#FB8485" stroke-width="8" stroke-linecap="round"/>
</svg>
