<svg width="167" height="150" viewBox="0 0 167 150" fill="none" xmlns="http://www.w3.org/2000/svg">
<path d="M145 40C145 33.671 143.123 27.4841 139.607 22.2218C136.091 16.9594 131.093 12.8579 125.246 10.4359C119.399 8.01385 112.965 7.38014 106.757 8.61487C100.55 9.8496 94.8479 12.8973 90.3726 17.3726C85.8973 21.8479 82.8496 27.5497 81.6149 33.7571C80.3801 39.9645 81.0139 46.3986 83.4359 52.2459C85.8579 58.0931 89.9594 63.0908 95.2218 66.607C100.484 70.1232 106.671 72 113 72V40H145Z" fill="#2DD2C5"/>
<path d="M55 46.5C55 61.6878 42.6878 74 27.5 74C12.3122 74 0 61.6878 0 46.5C0 31.3122 12.3122 19 27.5 19C42.6878 19 55 31.3122 55 46.5ZM11.3721 46.5C11.3721 55.4072 18.5928 62.6279 27.5 62.6279C36.4072 62.6279 43.6279 55.4072 43.6279 46.5C43.6279 37.5928 36.4072 30.3721 27.5 30.3721C18.5928 30.3721 11.3721 37.5928 11.3721 46.5Z" fill="black" fill-opacity="0.04"/>
<circle cx="156" cy="103" r="47" fill="black" fill-opacity="0.04"/>
<path d="M150 8.5C150 34.7335 128.734 56 102.5 56C76.2665 56 55 34.7335 55 8.5C55 -17.7335 76.2665 -39 102.5 -39C128.734 -39 150 -17.7335 150 8.5ZM67.3589 8.5C67.3589 27.9079 83.0921 43.6411 102.5 43.6411C121.908 43.6411 137.641 27.9079 137.641 8.5C137.641 -10.9079 121.908 -26.6411 102.5 -26.6411C83.0921 -26.6411 67.3589 -10.9079 67.3589 8.5Z" fill="black" fill-opacity="0.04"/>
<line x1="135" y1="118.343" x2="171.343" y2="82" stroke="#31A1C9" stroke-width="8" stroke-linecap="round"/>
<line x1="27" y1="51.3431" x2="97.3431" y2="-19" stroke="#F7C9D9" stroke-width="8" stroke-linecap="round"/>
</svg>
