<svg width="180" height="126" viewBox="0 0 180 126" fill="none" xmlns="http://www.w3.org/2000/svg">
<circle cx="28" cy="40" r="40" fill="#FB8485"/>
<path d="M104 96C104 103.516 106.229 110.863 110.404 117.112C114.58 123.361 120.514 128.231 127.458 131.107C134.402 133.984 142.042 134.736 149.413 133.27C156.785 131.804 163.556 128.184 168.87 122.87C174.184 117.556 177.804 110.785 179.27 103.413C180.736 96.0422 179.984 88.4016 177.107 81.458C174.231 74.5144 169.361 68.5797 163.112 64.4042C156.863 60.2287 149.516 58 142 58L142 96L104 96Z" fill="black" fill-opacity="0.04"/>
<path d="M83 102.5C83 125.972 63.9721 145 40.5 145C17.0279 145 -2 125.972 -2 102.5C-2 79.0279 17.0279 60 40.5 60C63.9721 60 83 79.0279 83 102.5ZM8.48995 102.5C8.48995 120.179 22.8213 134.51 40.5 134.51C58.1787 134.51 72.51 120.179 72.51 102.5C72.51 84.8213 58.1787 70.49 40.5 70.49C22.8213 70.49 8.48995 84.8213 8.48995 102.5Z" fill="black" fill-opacity="0.04"/>
<line x1="44" y1="128.343" x2="132.343" y2="40" stroke="#2DD2C5" stroke-width="8" stroke-linecap="round"/>
</svg>
