<svg width="652" height="540" viewBox="0 0 652 540" fill="none" xmlns="http://www.w3.org/2000/svg">
<g clip-path="url(#clip0_337_500)">
<path d="M237 126.5C237 158.256 211.256 184 179.5 184C147.744 184 122 158.256 122 126.5C122 94.7436 147.744 69 179.5 69C211.256 69 237 94.7436 237 126.5ZM136.627 126.5C136.627 150.178 155.822 169.373 179.5 169.373C203.178 169.373 222.373 150.178 222.373 126.5C222.373 102.822 203.178 83.6275 179.5 83.6275C155.822 83.6275 136.627 102.822 136.627 126.5Z" fill="white" fill-opacity="0.12"/>
<path d="M109 463C109 505.526 74.5259 540 32 540C-10.5259 540 -45 505.526 -45 463C-45 420.474 -10.5259 386 32 386C74.5259 386 109 420.474 109 463ZM-14.9048 463C-14.9048 488.905 6.09522 509.905 32 509.905C57.9048 509.905 78.9048 488.905 78.9048 463C78.9048 437.095 57.9048 416.095 32 416.095C6.09522 416.095 -14.9048 437.095 -14.9048 463Z" fill="white" fill-opacity="0.12"/>
<path d="M378.5 233C388.092 233 397.469 230.156 405.445 224.826C413.421 219.497 419.637 211.922 423.308 203.06C426.979 194.198 427.939 184.446 426.068 175.038C424.197 165.63 419.578 156.988 412.795 150.205C406.012 143.422 397.37 138.803 387.962 136.932C378.554 135.061 368.802 136.021 359.94 139.692C351.078 143.363 343.503 149.579 338.174 157.555C332.844 165.531 330 174.908 330 184.5L378.5 184.5L378.5 233Z" fill="black" fill-opacity="0.04"/>
<circle cx="132" cy="313" r="100" fill="white" fill-opacity="0.12"/>
<path d="M303 269C303 301.585 276.585 328 244 328C211.415 328 185 301.585 185 269C185 236.415 211.415 210 244 210C276.585 210 303 236.415 303 269ZM209.398 269C209.398 288.11 224.89 303.602 244 303.602C263.11 303.602 278.602 288.11 278.602 269C278.602 249.89 263.11 234.398 244 234.398C224.89 234.398 209.398 249.89 209.398 269Z" fill="black" fill-opacity="0.04"/>
<path d="M-3 81C-3 91.878 0.225692 102.512 6.26917 111.556C12.3126 120.601 20.9025 127.651 30.9524 131.813C41.0023 135.976 52.061 137.065 62.73 134.943C73.3989 132.821 83.199 127.583 90.8909 119.891C98.5828 112.199 103.821 102.399 105.943 91.73C108.065 81.061 106.976 70.0024 102.813 59.9524C98.6506 49.9025 91.6011 41.3127 82.5564 35.2692C73.5117 29.2257 62.878 26 52 26L52 81L-3 81Z" fill="white" fill-opacity="0.12"/>
<path d="M303 58.5C303 106.825 263.825 146 215.5 146C167.175 146 128 106.825 128 58.5C128 10.1751 167.175 -29 215.5 -29C263.825 -29 303 10.1751 303 58.5ZM154.25 58.5C154.25 92.3274 181.673 119.75 215.5 119.75C249.327 119.75 276.75 92.3274 276.75 58.5C276.75 24.6726 249.327 -2.75 215.5 -2.75C181.673 -2.75 154.25 24.6726 154.25 58.5Z" fill="black" fill-opacity="0.04"/>
<circle cx="450" r="100" fill="black" fill-opacity="0.04"/>
</g>
<defs>
<clipPath id="clip0_337_500">
<rect width="652" height="540" fill="white"/>
</clipPath>
</defs>
</svg>
