<svg width="656" height="645" viewBox="0 0 656 645" fill="none" xmlns="http://www.w3.org/2000/svg">
<circle cx="229" cy="455" r="100" fill="#2DD2C5"/>
<circle cx="457" cy="212" r="100" fill="#F7C9D9"/>
<path d="M299 192C299 172.222 293.135 152.888 282.147 136.443C271.159 119.998 255.541 107.181 237.268 99.612C218.996 92.0433 198.889 90.0629 179.491 93.9215C160.093 97.78 142.275 107.304 128.289 121.289C114.304 135.275 104.78 153.093 100.921 172.491C97.0629 191.889 99.0433 211.996 106.612 230.268C114.181 248.541 126.998 264.159 143.443 275.147C159.888 286.135 179.222 292 199 292L199 192H299Z" fill="#31A1C9"/>
</svg>
