<svg width="652" height="540" viewBox="0 0 652 540" fill="none" xmlns="http://www.w3.org/2000/svg">
<g clip-path="url(#clip0_337_501)">
<path d="M206.5 82C218.268 82 229.772 78.5104 239.556 71.9724C249.341 65.4345 256.967 56.1419 261.471 45.2697C265.974 34.3975 267.153 22.434 264.857 10.8921C262.561 -0.649739 256.894 -11.2516 248.573 -19.5728C240.252 -27.8941 229.65 -33.5609 218.108 -35.8567C206.566 -38.1525 194.603 -36.9742 183.73 -32.4708C172.858 -27.9674 163.566 -20.3412 157.028 -10.5564C150.49 -0.771712 147 10.732 147 22.5L206.5 22.5L206.5 82Z" fill="white" fill-opacity="0.12"/>
<circle cx="589" cy="190" r="47" fill="black" fill-opacity="0.04"/>
<path d="M497 114.5C497 161.168 459.168 199 412.5 199C365.832 199 328 161.168 328 114.5C328 67.8319 365.832 30 412.5 30C459.168 30 497 67.8319 497 114.5ZM343.269 114.5C343.269 152.735 374.265 183.731 412.5 183.731C450.735 183.731 481.731 152.735 481.731 114.5C481.731 76.2647 450.735 45.2688 412.5 45.2688C374.265 45.2688 343.269 76.2647 343.269 114.5Z" fill="white" fill-opacity="0.12"/>
<path d="M429 30C429 62.5848 402.585 89 370 89C337.415 89 311 62.5848 311 30C311 -2.5848 337.415 -29 370 -29C402.585 -29 429 -2.5848 429 30ZM337.58 30C337.58 47.9052 352.095 62.4203 370 62.4203C387.905 62.4203 402.42 47.9052 402.42 30C402.42 12.0948 387.905 -2.42026 370 -2.42026C352.095 -2.42026 337.58 12.0948 337.58 30Z" fill="black" fill-opacity="0.04"/>
<circle cx="574" cy="63" r="100" fill="white" fill-opacity="0.12"/>
</g>
<defs>
<clipPath id="clip0_337_501">
<rect width="652" height="540" fill="white"/>
</clipPath>
</defs>
</svg>
