<svg width="656" height="645" viewBox="0 0 656 645" fill="none" xmlns="http://www.w3.org/2000/svg">
<path d="M244 486C244 466.222 238.135 446.888 227.147 430.443C216.159 413.998 200.541 401.181 182.268 393.612C163.996 386.043 143.889 384.063 124.491 387.921C105.093 391.78 87.2746 401.304 73.2893 415.289C59.3041 429.275 49.78 447.093 45.9215 466.491C42.0629 485.889 44.0433 505.996 51.612 524.268C59.1808 542.541 71.9981 558.159 88.443 569.147C104.888 580.135 124.222 586 144 586L144 486H244Z" fill="#2DD2C5"/>
<circle cx="412" cy="404" r="100" fill="#FB8485"/>
<circle cx="512" cy="159" r="100" fill="#31A1C9"/>
</svg>
