<svg width="652" height="540" viewBox="0 0 652 540" fill="none" xmlns="http://www.w3.org/2000/svg">
<g clip-path="url(#clip0_337_503)">
<circle cx="17.5" cy="375.5" r="82.5" fill="black" fill-opacity="0.04"/>
<path d="M427 558.5C427 606.825 387.825 646 339.5 646C291.175 646 252 606.825 252 558.5C252 510.175 291.175 471 339.5 471C387.825 471 427 510.175 427 558.5ZM278.25 558.5C278.25 592.327 305.673 619.75 339.5 619.75C373.327 619.75 400.75 592.327 400.75 558.5C400.75 524.673 373.327 497.25 339.5 497.25C305.673 497.25 278.25 524.673 278.25 558.5Z" fill="black" fill-opacity="0.04"/>
<path d="M195 433C188.078 433 181.311 435.053 175.555 438.899C169.799 442.744 165.313 448.211 162.664 454.606C160.015 461.001 159.322 468.039 160.673 474.828C162.023 481.617 165.356 487.854 170.251 492.749C175.146 497.644 181.383 500.977 188.172 502.327C194.961 503.678 201.999 502.985 208.394 500.336C214.789 497.687 220.256 493.201 224.101 487.445C227.947 481.689 230 474.922 230 468H195L195 433Z" fill="black" fill-opacity="0.04"/>
<circle cx="152" cy="509" r="100" fill="white" fill-opacity="0.12"/>
<path d="M174 375.5C174 407.256 148.256 433 116.5 433C84.7436 433 59 407.256 59 375.5C59 343.744 84.7436 318 116.5 318C148.256 318 174 343.744 174 375.5ZM67.5914 375.5C67.5914 402.511 89.4885 424.409 116.5 424.409C143.511 424.409 165.409 402.511 165.409 375.5C165.409 348.489 143.511 326.591 116.5 326.591C89.4885 326.591 67.5914 348.489 67.5914 375.5Z" fill="white" fill-opacity="0.12"/>
</g>
<defs>
<clipPath id="clip0_337_503">
<rect width="652" height="540" fill="white"/>
</clipPath>
</defs>
</svg>
