<svg width="652" height="540" viewBox="0 0 652 540" fill="none" xmlns="http://www.w3.org/2000/svg">
<g clip-path="url(#clip0_337_502)">
<circle cx="100" cy="568" r="100" fill="black" fill-opacity="0.04"/>
<circle cx="581" cy="350" r="47" fill="black" fill-opacity="0.04"/>
<path d="M566 186C566 221.346 537.346 250 502 250C466.654 250 438 221.346 438 186C438 150.654 466.654 122 502 122C537.346 122 566 150.654 566 186ZM454.652 186C454.652 212.15 475.85 233.348 502 233.348C528.15 233.348 549.348 212.15 549.348 186C549.348 159.85 528.15 138.652 502 138.652C475.85 138.652 454.652 159.85 454.652 186Z" fill="black" fill-opacity="0.04"/>
<path d="M314 408C314 450.526 279.526 485 237 485C194.474 485 160 450.526 160 408C160 365.474 194.474 331 237 331C279.526 331 314 365.474 314 408ZM190.095 408C190.095 433.905 211.095 454.905 237 454.905C262.905 454.905 283.905 433.905 283.905 408C283.905 382.095 262.905 361.095 237 361.095C211.095 361.095 190.095 382.095 190.095 408Z" fill="white" fill-opacity="0.12"/>
<circle cx="555" cy="448" r="100" fill="white" fill-opacity="0.12"/>
<path d="M411 294C399.133 294 387.533 297.519 377.666 304.112C367.799 310.705 360.108 320.075 355.567 331.039C351.026 342.003 349.838 354.067 352.153 365.705C354.468 377.344 360.182 388.035 368.574 396.426C376.965 404.818 387.656 410.532 399.295 412.847C410.933 415.162 422.997 413.974 433.961 409.433C444.925 404.892 454.295 397.201 460.888 387.334C467.481 377.467 471 365.867 471 354H411L411 294Z" fill="black" fill-opacity="0.04"/>
<path d="M581 122C592.867 122 604.467 118.481 614.334 111.888C624.201 105.295 631.892 95.9246 636.433 84.961C640.974 73.9974 642.162 61.9334 639.847 50.2946C637.532 38.6557 631.818 27.9647 623.426 19.5736C615.035 11.1824 604.344 5.468 592.705 3.15288C581.067 0.83777 569.003 2.02597 558.039 6.56723C547.075 11.1085 537.705 18.7988 531.112 28.6658C524.519 38.5327 521 50.1331 521 62L581 62L581 122Z" fill="white" fill-opacity="0.12"/>
<path d="M438 528.5C438 564.675 408.675 594 372.5 594C336.325 594 307 564.675 307 528.5C307 492.325 336.325 463 372.5 463C408.675 463 438 492.325 438 528.5ZM332.6 528.5C332.6 550.536 350.464 568.4 372.5 568.4C394.536 568.4 412.4 550.536 412.4 528.5C412.4 506.464 394.536 488.6 372.5 488.6C350.464 488.6 332.6 506.464 332.6 528.5Z" fill="white" fill-opacity="0.12"/>
</g>
<defs>
<clipPath id="clip0_337_502">
<rect width="652" height="540" fill="white"/>
</clipPath>
</defs>
</svg>
