<svg width="235" height="203" viewBox="0 0 235 203" fill="none" xmlns="http://www.w3.org/2000/svg">
<path d="M165 72C165 65.671 163.123 59.4841 159.607 54.2218C156.091 48.9594 151.093 44.8579 145.246 42.4359C139.399 40.0139 132.965 39.3801 126.757 40.6149C120.55 41.8496 114.848 44.8973 110.373 49.3726C105.897 53.8479 102.85 59.5497 101.615 65.7571C100.38 71.9645 101.014 78.3986 103.436 84.2459C105.858 90.0931 109.959 95.0908 115.222 98.607C120.484 102.123 126.671 104 133 104L133 72H165Z" fill="#2DD2C5"/>
<line x1="120" y1="185.343" x2="191.343" y2="114" stroke="#31A1C9" stroke-width="8" stroke-linecap="round"/>
<line x1="38" y1="92.3431" x2="117.343" y2="13" stroke="#F7C9D9" stroke-width="8" stroke-linecap="round"/>
</svg>
