<svg width="235" height="203" viewBox="0 0 235 203" fill="none" xmlns="http://www.w3.org/2000/svg">
<path d="M71 92.5C71 107.688 58.6878 120 43.5 120C28.3122 120 16 107.688 16 92.5C16 77.3122 28.3122 65 43.5 65C58.6878 65 71 77.3122 71 92.5ZM27.3721 92.5C27.3721 101.407 34.5928 108.628 43.5 108.628C52.4072 108.628 59.6279 101.407 59.6279 92.5C59.6279 83.5928 52.4072 76.3721 43.5 76.3721C34.5928 76.3721 27.3721 83.5928 27.3721 92.5Z" fill="black" fill-opacity="0.04"/>
<circle cx="172" cy="149" r="47" fill="black" fill-opacity="0.04"/>
<path d="M166 54.5C166 80.7335 144.734 102 118.5 102C92.2665 102 71 80.7335 71 54.5C71 28.2665 92.2665 7 118.5 7C144.734 7 166 28.2665 166 54.5ZM83.3589 54.5C83.3589 73.9079 99.0921 89.6411 118.5 89.6411C137.908 89.6411 153.641 73.9079 153.641 54.5C153.641 35.0921 137.908 19.3589 118.5 19.3589C99.0921 19.3589 83.3589 35.0921 83.3589 54.5Z" fill="black" fill-opacity="0.04"/>
</svg>
