<svg width="235" height="203" viewBox="0 0 235 203" fill="none" xmlns="http://www.w3.org/2000/svg">
<path d="M133 96C133 103.516 135.229 110.863 139.404 117.112C143.58 123.361 149.514 128.231 156.458 131.107C163.402 133.984 171.042 134.736 178.413 133.27C185.785 131.804 192.556 128.184 197.87 122.87C203.184 117.556 206.804 110.785 208.27 103.413C209.736 96.0422 208.984 88.4016 206.107 81.458C203.231 74.5144 198.361 68.5797 192.112 64.4042C185.863 60.2287 178.516 58 171 58L171 96L133 96Z" fill="black" fill-opacity="0.04"/>
<path d="M112 102.5C112 125.972 92.9721 145 69.5 145C46.0279 145 27 125.972 27 102.5C27 79.0279 46.0279 60 69.5 60C92.9721 60 112 79.0279 112 102.5ZM37.49 102.5C37.49 120.179 51.8213 134.51 69.5 134.51C87.1787 134.51 101.51 120.179 101.51 102.5C101.51 84.8213 87.1787 70.49 69.5 70.49C51.8213 70.49 37.49 84.8213 37.49 102.5Z" fill="black" fill-opacity="0.04"/>
</svg>
