<svg width="235" height="203" viewBox="0 0 235 203" fill="none" xmlns="http://www.w3.org/2000/svg">
<circle cx="103" cy="67" r="40" fill="#F7C9D9"/>
<path d="M93 147C93 154.318 95.17 161.472 99.2356 167.556C103.301 173.641 109.08 178.383 115.841 181.184C122.602 183.984 130.041 184.717 137.218 183.289C144.396 181.861 150.988 178.338 156.163 173.163C161.337 167.988 164.861 161.396 166.289 154.218C167.717 147.041 166.984 139.602 164.184 132.841C161.383 126.08 156.641 120.301 150.556 116.236C144.471 112.17 137.318 110 130 110L130 147L93 147Z" fill="#2DD2C5"/>
<line x1="58" y1="134.343" x2="179.343" y2="13" stroke="#31A1C9" stroke-width="8" stroke-linecap="round"/>
</svg>
