<svg width="235" height="203" viewBox="0 0 235 203" fill="none" xmlns="http://www.w3.org/2000/svg">
<circle cx="54.5" cy="72.5" r="31.5" fill="black" fill-opacity="0.04"/>
<path d="M202 52.5C202 78.7335 180.734 100 154.5 100C128.266 100 107 78.7335 107 52.5C107 26.2665 128.266 5 154.5 5C180.734 5 202 26.2665 202 52.5ZM122.865 52.5C122.865 69.9714 137.029 84.1348 154.5 84.1348C171.971 84.1348 186.135 69.9714 186.135 52.5C186.135 35.0286 171.971 20.8652 154.5 20.8652C137.029 20.8652 122.865 35.0286 122.865 52.5Z" fill="black" fill-opacity="0.04"/>
<path d="M170 199C178.307 199 186.427 196.537 193.334 191.922C200.241 187.307 205.624 180.747 208.803 173.073C211.982 165.398 212.814 156.953 211.193 148.806C209.572 140.659 205.572 133.175 199.698 127.302C193.825 121.428 186.341 117.428 178.194 115.807C170.047 114.186 161.602 115.018 153.927 118.197C146.253 121.376 139.693 126.759 135.078 133.666C130.463 140.573 128 148.693 128 157L170 157L170 199Z" fill="black" fill-opacity="0.04"/>
</svg>
