<svg width="235" height="203" viewBox="0 0 235 203" fill="none" xmlns="http://www.w3.org/2000/svg">
<path d="M114 60.5C114 88.9427 90.9427 112 62.5 112C34.0573 112 11 88.9427 11 60.5C11 32.0573 34.0573 9 62.5 9C90.9427 9 114 32.0573 114 60.5ZM21.0094 60.5C21.0094 83.4146 39.5854 101.991 62.5 101.991C85.4146 101.991 103.991 83.4146 103.991 60.5C103.991 37.5854 85.4146 19.0094 62.5 19.0094C39.5854 19.0094 21.0094 37.5854 21.0094 60.5Z" fill="black" fill-opacity="0.04"/>
<path d="M225 137C225 169.033 199.033 195 167 195C134.967 195 109 169.033 109 137C109 104.967 134.967 79 167 79C199.033 79 225 104.967 225 137ZM133.881 137C133.881 155.291 148.709 170.119 167 170.119C185.291 170.119 200.119 155.291 200.119 137C200.119 118.709 185.291 103.881 167 103.881C148.709 103.881 133.881 118.709 133.881 137Z" fill="black" fill-opacity="0.04"/>
</svg>
