<svg width="235" height="203" viewBox="0 0 235 203" fill="none" xmlns="http://www.w3.org/2000/svg">
<path d="M141 93C141 86.671 139.123 80.4841 135.607 75.2217C132.091 69.9593 127.093 65.8578 121.246 63.4358C115.399 61.0138 108.965 60.3801 102.757 61.6148C96.5497 62.8496 90.8479 65.8973 86.3726 70.3726C81.8973 74.8478 78.8496 80.5497 77.6149 86.7571C76.3801 92.9645 77.0139 99.3986 79.4359 105.246C81.8579 111.093 85.9594 116.091 91.2218 119.607C96.4841 123.123 102.671 125 109 125L109 93H141Z" fill="#F7C9D9"/>
<line x1="116" y1="186.343" x2="192.343" y2="110" stroke="#FB8485" stroke-width="8" stroke-linecap="round"/>
<line x1="37" y1="100.343" x2="126.343" y2="11" stroke="#2DD2C5" stroke-width="8" stroke-linecap="round"/>
</svg>
